<svg xmlns="http://www.w3.org/2000/svg" xmlns:xlink="http://www.w3.org/1999/xlink" version="1.1" class="marks" width="348" height="377" viewBox="0 0 348 377"><rect width="348" height="377" fill="white"/><g fill="none" stroke-miterlimit="10" transform="translate(33,27)"><g class="mark-group role-frame root" role="graphics-object" aria-roledescription="group mark container"><g transform="translate(0,0)"><path class="background" aria-hidden="true" d="M0.5,0.5h270v300h-270Z" stroke="#ddd"/><g><g class="mark-group role-axis" aria-hidden="true"><g transform="translate(0.5,0.5)"><path class="background" aria-hidden="true" d="M0,0h0v0h0Z" pointer-events="none"/><g><g class="mark-rule role-axis-grid" pointer-events="none"><line transform="translate(0,300)" x2="270" y2="0" stroke="#ddd" stroke-width="1" opacity="1"/><line transform="translate(0,263)" x2="270" y2="0" stroke="#ddd" stroke-width="1" opacity="1"/><line transform="translate(0,225)" x2="270" y2="0" stroke="#ddd" stroke-width="1" opacity="1"/><line transform="translate(0,188)" x2="270" y2="0" stroke="#ddd" stroke-width="1" opacity="1"/><line transform="translate(0,150)" x2="270" y2="0" stroke="#ddd" stroke-width="1" opacity="1"/><line transform="translate(0,113)" x2="270" y2="0" stroke="#ddd" stroke-width="1" opacity="1"/><line transform="translate(0,75)" x2="270" y2="0" stroke="#ddd" stroke-width="1" opacity="1"/><line transform="translate(0,38)" x2="270" y2="0" stroke="#ddd" stroke-width="1" opacity="1"/><line transform="translate(0,0)" x2="270" y2="0" stroke="#ddd" stroke-width="1" opacity="1"/></g></g><path class="foreground" aria-hidden="true" d="" pointer-events="none" display="none"/></g></g><g class="mark-group role-axis" role="graphics-symbol" aria-roledescription="axis" aria-label="X-axis titled 'Year' for a discrete scale with 73 values: 1945, 1946, 1947, 1948, 1949, ending with 2019"><g transform="translate(0.5,300.5)"><path class="background" aria-hidden="true" d="M0,0h0v0h0Z" pointer-events="none"/><g><g class="mark-rule role-axis-tick" pointer-events="none"><line transform="translate(1,0)" x2="0" y2="5" stroke="#888" stroke-width="1" opacity="1"/><line transform="translate(5,0)" x2="0" y2="5" stroke="#888" stroke-width="1" opacity="1"/><line transform="translate(9,0)" x2="0" y2="5" stroke="#888" stroke-width="1" opacity="1"/><line transform="translate(12,0)" x2="0" y2="5" stroke="#888" stroke-width="1" opacity="1"/><line transform="translate(16,0)" x2="0" y2="5" stroke="#888" stroke-width="1" opacity="1"/><line transform="translate(20,0)" x2="0" y2="5" stroke="#888" stroke-width="1" opacity="1"/><line transform="translate(24,0)" x2="0" y2="5" stroke="#888" stroke-width="1" opacity="1"/><line transform="translate(27,0)" x2="0" y2="5" stroke="#888" stroke-width="1" opacity="1"/><line transform="translate(31,0)" x2="0" y2="5" stroke="#888" stroke-width="1" opacity="1"/><line transform="translate(35,0)" x2="0" y2="5" stroke="#888" stroke-width="1" opacity="1"/><line transform="translate(38,0)" x2="0" y2="5" stroke="#888" stroke-width="1" opacity="1"/><line transform="translate(42,0)" x2="0" y2="5" stroke="#888" stroke-width="1" opacity="1"/><line transform="translate(46,0)" x2="0" y2="5" stroke="#888" stroke-width="1" opacity="1"/><line transform="translate(49,0)" x2="0" y2="5" stroke="#888" stroke-width="1" opacity="1"/><line transform="translate(53,0)" x2="0" y2="5" stroke="#888" stroke-width="1" opacity="1"/><line transform="translate(57,0)" x2="0" y2="5" stroke="#888" stroke-width="1" opacity="1"/><line transform="translate(61,0)" x2="0" y2="5" stroke="#888" stroke-width="1" opacity="1"/><line transform="translate(64,0)" x2="0" y2="5" stroke="#888" stroke-width="1" opacity="1"/><line transform="translate(68,0)" x2="0" y2="5" stroke="#888" stroke-width="1" opacity="1"/><line transform="translate(72,0)" x2="0" y2="5" stroke="#888" stroke-width="1" opacity="1"/><line transform="translate(75,0)" x2="0" y2="5" stroke="#888" stroke-width="1" opacity="1"/><line transform="translate(79,0)" x2="0" y2="5" stroke="#888" stroke-width="1" opacity="1"/><line transform="translate(83,0)" x2="0" y2="5" stroke="#888" stroke-width="1" opacity="1"/><line transform="translate(86,0)" x2="0" y2="5" stroke="#888" stroke-width="1" opacity="1"/><line transform="translate(90,0)" x2="0" y2="5" stroke="#888" stroke-width="1" opacity="1"/><line transform="translate(94,0)" x2="0" y2="5" stroke="#888" stroke-width="1" opacity="1"/><line transform="translate(98,0)" x2="0" y2="5" stroke="#888" stroke-width="1" opacity="1"/><line transform="translate(101,0)" x2="0" y2="5" stroke="#888" stroke-width="1" opacity="1"/><line transform="translate(105,0)" x2="0" y2="5" stroke="#888" stroke-width="1" opacity="1"/><line transform="translate(109,0)" x2="0" y2="5" stroke="#888" stroke-width="1" opacity="1"/><line transform="translate(112,0)" x2="0" y2="5" stroke="#888" stroke-width="1" opacity="1"/><line transform="translate(116,0)" x2="0" y2="5" stroke="#888" stroke-width="1" opacity="1"/><line transform="translate(120,0)" x2="0" y2="5" stroke="#888" stroke-width="1" opacity="1"/><line transform="translate(123,0)" x2="0" y2="5" stroke="#888" stroke-width="1" opacity="1"/><line transform="translate(127,0)" x2="0" y2="5" stroke="#888" stroke-width="1" opacity="1"/><line transform="translate(131,0)" x2="0" y2="5" stroke="#888" stroke-width="1" opacity="1"/><line transform="translate(134,0)" x2="0" y2="5" stroke="#888" stroke-width="1" opacity="1"/><line transform="translate(138,0)" x2="0" y2="5" stroke="#888" stroke-width="1" opacity="1"/><line transform="translate(142,0)" x2="0" y2="5" stroke="#888" stroke-width="1" opacity="1"/><line transform="translate(146,0)" x2="0" y2="5" stroke="#888" stroke-width="1" opacity="1"/><line transform="translate(149,0)" x2="0" y2="5" stroke="#888" stroke-width="1" opacity="1"/><line transform="translate(153,0)" x2="0" y2="5" stroke="#888" stroke-width="1" opacity="1"/><line transform="translate(157,0)" x2="0" y2="5" stroke="#888" stroke-width="1" opacity="1"/><line transform="translate(160,0)" x2="0" y2="5" stroke="#888" stroke-width="1" opacity="1"/><line transform="translate(164,0)" x2="0" y2="5" stroke="#888" stroke-width="1" opacity="1"/><line transform="translate(168,0)" x2="0" y2="5" stroke="#888" stroke-width="1" opacity="1"/><line transform="translate(171,0)" x2="0" y2="5" stroke="#888" stroke-width="1" opacity="1"/><line transform="translate(175,0)" x2="0" y2="5" stroke="#888" stroke-width="1" opacity="1"/><line transform="translate(179,0)" x2="0" y2="5" stroke="#888" stroke-width="1" opacity="1"/><line transform="translate(183,0)" x2="0" y2="5" stroke="#888" stroke-width="1" opacity="1"/><line transform="translate(186,0)" x2="0" y2="5" stroke="#888" stroke-width="1" opacity="1"/><line transform="translate(190,0)" x2="0" y2="5" stroke="#888" stroke-width="1" opacity="1"/><line transform="translate(194,0)" x2="0" y2="5" stroke="#888" stroke-width="1" opacity="1"/><line transform="translate(197,0)" x2="0" y2="5" stroke="#888" stroke-width="1" opacity="1"/><line transform="translate(201,0)" x2="0" y2="5" stroke="#888" stroke-width="1" opacity="1"/><line transform="translate(205,0)" x2="0" y2="5" stroke="#888" stroke-width="1" opacity="1"/><line transform="translate(208,0)" x2="0" y2="5" stroke="#888" stroke-width="1" opacity="1"/><line transform="translate(212,0)" x2="0" y2="5" stroke="#888" stroke-width="1" opacity="1"/><line transform="translate(216,0)" x2="0" y2="5" stroke="#888" stroke-width="1" opacity="1"/><line transform="translate(220,0)" x2="0" y2="5" stroke="#888" stroke-width="1" opacity="1"/><line transform="translate(223,0)" x2="0" y2="5" stroke="#888" stroke-width="1" opacity="1"/><line transform="translate(227,0)" x2="0" y2="5" stroke="#888" stroke-width="1" opacity="1"/><line transform="translate(231,0)" x2="0" y2="5" stroke="#888" stroke-width="1" opacity="1"/><line transform="translate(234,0)" x2="0" y2="5" stroke="#888" stroke-width="1" opacity="1"/><line transform="translate(238,0)" x2="0" y2="5" stroke="#888" stroke-width="1" opacity="1"/><line transform="translate(242,0)" x2="0" y2="5" stroke="#888" stroke-width="1" opacity="1"/><line transform="translate(245,0)" x2="0" y2="5" stroke="#888" stroke-width="1" opacity="1"/><line transform="translate(249,0)" x2="0" y2="5" stroke="#888" stroke-width="1" opacity="1"/><line transform="translate(253,0)" x2="0" y2="5" stroke="#888" stroke-width="1" opacity="1"/><line transform="translate(257,0)" x2="0" y2="5" stroke="#888" stroke-width="1" opacity="1"/><line transform="translate(260,0)" x2="0" y2="5" stroke="#888" stroke-width="1" opacity="1"/><line transform="translate(264,0)" x2="0" y2="5" stroke="#888" stroke-width="1" opacity="1"/><line transform="translate(268,0)" x2="0" y2="5" stroke="#888" stroke-width="1" opacity="1"/></g><g class="mark-text role-axis-label" pointer-events="none"><text text-anchor="start" transform="translate(1.3493150684931312,7) rotate(90) translate(0,3)" font-family="sans-serif" font-size="10px" fill="#000" opacity="1">1945</text><text text-anchor="start" transform="translate(5.047945205479433,7) rotate(90) translate(0,3)" font-family="sans-serif" font-size="10px" fill="#000" opacity="1"/><text text-anchor="start" transform="translate(8.746575342465734,7) rotate(90) translate(0,3)" font-family="sans-serif" font-size="10px" fill="#000" opacity="1"/><text text-anchor="start" transform="translate(12.445205479452037,7) rotate(90) translate(0,3)" font-family="sans-serif" font-size="10px" fill="#000" opacity="1"/><text text-anchor="start" transform="translate(16.143835616438338,7) rotate(90) translate(0,3)" font-family="sans-serif" font-size="10px" fill="#000" opacity="1"/><text text-anchor="start" transform="translate(19.842465753424637,7) rotate(90) translate(0,3)" font-family="sans-serif" font-size="10px" fill="#000" opacity="1">1950</text><text text-anchor="start" transform="translate(23.54109589041094,7) rotate(90) translate(0,3)" font-family="sans-serif" font-size="10px" fill="#000" opacity="1"/><text text-anchor="start" transform="translate(27.23972602739724,7) rotate(90) translate(0,3)" font-family="sans-serif" font-size="10px" fill="#000" opacity="1"/><text text-anchor="start" transform="translate(30.938356164383542,7) rotate(90) translate(0,3)" font-family="sans-serif" font-size="10px" fill="#000" opacity="1"/><text text-anchor="start" transform="translate(34.636986301369845,7) rotate(90) translate(0,3)" font-family="sans-serif" font-size="10px" fill="#000" opacity="1">1955</text><text text-anchor="start" transform="translate(38.33561643835615,7) rotate(90) translate(0,3)" font-family="sans-serif" font-size="10px" fill="#000" opacity="1"/><text text-anchor="start" transform="translate(42.03424657534245,7) rotate(90) translate(0,3)" font-family="sans-serif" font-size="10px" fill="#000" opacity="1"/><text text-anchor="start" transform="translate(45.73287671232875,7) rotate(90) translate(0,3)" font-family="sans-serif" font-size="10px" fill="#000" opacity="1"/><text text-anchor="start" transform="translate(49.431506849315056,7) rotate(90) translate(0,3)" font-family="sans-serif" font-size="10px" fill="#000" opacity="1"/><text text-anchor="start" transform="translate(53.13013698630135,7) rotate(90) translate(0,3)" font-family="sans-serif" font-size="10px" fill="#000" opacity="1">1960</text><text text-anchor="start" transform="translate(56.828767123287655,7) rotate(90) translate(0,3)" font-family="sans-serif" font-size="10px" fill="#000" opacity="1"/><text text-anchor="start" transform="translate(60.52739726027396,7) rotate(90) translate(0,3)" font-family="sans-serif" font-size="10px" fill="#000" opacity="1"/><text text-anchor="start" transform="translate(64.22602739726025,7) rotate(90) translate(0,3)" font-family="sans-serif" font-size="10px" fill="#000" opacity="1"/><text text-anchor="start" transform="translate(67.92465753424655,7) rotate(90) translate(0,3)" font-family="sans-serif" font-size="10px" fill="#000" opacity="1"/><text text-anchor="start" transform="translate(71.62328767123286,7) rotate(90) translate(0,3)" font-family="sans-serif" font-size="10px" fill="#000" opacity="1">1965</text><text text-anchor="start" transform="translate(75.32191780821915,7) rotate(90) translate(0,3)" font-family="sans-serif" font-size="10px" fill="#000" opacity="1"/><text text-anchor="start" transform="translate(79.02054794520546,7) rotate(90) translate(0,3)" font-family="sans-serif" font-size="10px" fill="#000" opacity="1"/><text text-anchor="start" transform="translate(82.71917808219176,7) rotate(90) translate(0,3)" font-family="sans-serif" font-size="10px" fill="#000" opacity="1"/><text text-anchor="start" transform="translate(86.41780821917806,7) rotate(90) translate(0,3)" font-family="sans-serif" font-size="10px" fill="#000" opacity="1"/><text text-anchor="start" transform="translate(90.11643835616437,7) rotate(90) translate(0,3)" font-family="sans-serif" font-size="10px" fill="#000" opacity="1">1970</text><text text-anchor="start" transform="translate(93.81506849315066,7) rotate(90) translate(0,3)" font-family="sans-serif" font-size="10px" fill="#000" opacity="1"/><text text-anchor="start" transform="translate(97.51369863013697,7) rotate(90) translate(0,3)" font-family="sans-serif" font-size="10px" fill="#000" opacity="1"/><text text-anchor="start" transform="translate(101.21232876712327,7) rotate(90) translate(0,3)" font-family="sans-serif" font-size="10px" fill="#000" opacity="1"/><text text-anchor="start" transform="translate(104.91095890410956,7) rotate(90) translate(0,3)" font-family="sans-serif" font-size="10px" fill="#000" opacity="1">1975</text><text text-anchor="start" transform="translate(108.60958904109587,7) rotate(90) translate(0,3)" font-family="sans-serif" font-size="10px" fill="#000" opacity="1"/><text text-anchor="start" transform="translate(112.30821917808217,7) rotate(90) translate(0,3)" font-family="sans-serif" font-size="10px" fill="#000" opacity="1"/><text text-anchor="start" transform="translate(116.00684931506848,7) rotate(90) translate(0,3)" font-family="sans-serif" font-size="10px" fill="#000" opacity="1"/><text text-anchor="start" transform="translate(119.70547945205477,7) rotate(90) translate(0,3)" font-family="sans-serif" font-size="10px" fill="#000" opacity="1"/><text text-anchor="start" transform="translate(123.40410958904107,7) rotate(90) translate(0,3)" font-family="sans-serif" font-size="10px" fill="#000" opacity="1">1980</text><text text-anchor="start" transform="translate(127.10273972602738,7) rotate(90) translate(0,3)" font-family="sans-serif" font-size="10px" fill="#000" opacity="1"/><text text-anchor="start" transform="translate(130.8013698630137,7) rotate(90) translate(0,3)" font-family="sans-serif" font-size="10px" fill="#000" opacity="1"/><text text-anchor="start" transform="translate(134.49999999999997,7) rotate(90) translate(0,3)" font-family="sans-serif" font-size="10px" fill="#000" opacity="1"/><text text-anchor="start" transform="translate(138.19863013698628,7) rotate(90) translate(0,3)" font-family="sans-serif" font-size="10px" fill="#000" opacity="1"/><text text-anchor="start" transform="translate(141.8972602739726,7) rotate(90) translate(0,3)" font-family="sans-serif" font-size="10px" fill="#000" opacity="1">1985</text><text text-anchor="start" transform="translate(145.59589041095887,7) rotate(90) translate(0,3)" font-family="sans-serif" font-size="10px" fill="#000" opacity="1"/><text text-anchor="start" transform="translate(149.29452054794518,7) rotate(90) translate(0,3)" font-family="sans-serif" font-size="10px" fill="#000" opacity="1"/><text text-anchor="start" transform="translate(152.9931506849315,7) rotate(90) translate(0,3)" font-family="sans-serif" font-size="10px" fill="#000" opacity="1"/><text text-anchor="start" transform="translate(156.6917808219178,7) rotate(90) translate(0,3)" font-family="sans-serif" font-size="10px" fill="#000" opacity="1"/><text text-anchor="start" transform="translate(160.39041095890408,7) rotate(90) translate(0,3)" font-family="sans-serif" font-size="10px" fill="#000" opacity="1">1990</text><text text-anchor="start" transform="translate(164.0890410958904,7) rotate(90) translate(0,3)" font-family="sans-serif" font-size="10px" fill="#000" opacity="1"/><text text-anchor="start" transform="translate(167.7876712328767,7) rotate(90) translate(0,3)" font-family="sans-serif" font-size="10px" fill="#000" opacity="1"/><text text-anchor="start" transform="translate(171.48630136986299,7) rotate(90) translate(0,3)" font-family="sans-serif" font-size="10px" fill="#000" opacity="1"/><text text-anchor="start" transform="translate(175.1849315068493,7) rotate(90) translate(0,3)" font-family="sans-serif" font-size="10px" fill="#000" opacity="1"/><text text-anchor="start" transform="translate(178.8835616438356,7) rotate(90) translate(0,3)" font-family="sans-serif" font-size="10px" fill="#000" opacity="1">1995</text><text text-anchor="start" transform="translate(182.5821917808219,7) rotate(90) translate(0,3)" font-family="sans-serif" font-size="10px" fill="#000" opacity="1"/><text text-anchor="start" transform="translate(186.2808219178082,7) rotate(90) translate(0,3)" font-family="sans-serif" font-size="10px" fill="#000" opacity="1"/><text text-anchor="start" transform="translate(189.9794520547945,7) rotate(90) translate(0,3)" font-family="sans-serif" font-size="10px" fill="#000" opacity="1"/><text text-anchor="start" transform="translate(193.67808219178082,7) rotate(90) translate(0,3)" font-family="sans-serif" font-size="10px" fill="#000" opacity="1"/><text text-anchor="start" transform="translate(197.3767123287671,7) rotate(90) translate(0,3)" font-family="sans-serif" font-size="10px" fill="#000" opacity="1">2000</text><text text-anchor="start" transform="translate(201.0753424657534,7) rotate(90) translate(0,3)" font-family="sans-serif" font-size="10px" fill="#000" opacity="1"/><text text-anchor="start" transform="translate(204.77397260273972,7) rotate(90) translate(0,3)" font-family="sans-serif" font-size="10px" fill="#000" opacity="1"/><text text-anchor="start" transform="translate(208.472602739726,7) rotate(90) translate(0,3)" font-family="sans-serif" font-size="10px" fill="#000" opacity="1"/><text text-anchor="start" transform="translate(212.1712328767123,7) rotate(90) translate(0,3)" font-family="sans-serif" font-size="10px" fill="#000" opacity="1"/><text text-anchor="start" transform="translate(215.86986301369862,7) rotate(90) translate(0,3)" font-family="sans-serif" font-size="10px" fill="#000" opacity="1">2005</text><text text-anchor="start" transform="translate(219.5684931506849,7) rotate(90) translate(0,3)" font-family="sans-serif" font-size="10px" fill="#000" opacity="1"/><text text-anchor="start" transform="translate(223.2671232876712,7) rotate(90) translate(0,3)" font-family="sans-serif" font-size="10px" fill="#000" opacity="1"/><text text-anchor="start" transform="translate(226.96575342465752,7) rotate(90) translate(0,3)" font-family="sans-serif" font-size="10px" fill="#000" opacity="1"/><text text-anchor="start" transform="translate(230.66438356164383,7) rotate(90) translate(0,3)" font-family="sans-serif" font-size="10px" fill="#000" opacity="1"/><text text-anchor="start" transform="translate(234.3630136986301,7) rotate(90) translate(0,3)" font-family="sans-serif" font-size="10px" fill="#000" opacity="1">2010</text><text text-anchor="start" transform="translate(238.06164383561642,7) rotate(90) translate(0,3)" font-family="sans-serif" font-size="10px" fill="#000" opacity="1"/><text text-anchor="start" transform="translate(241.76027397260273,7) rotate(90) translate(0,3)" font-family="sans-serif" font-size="10px" fill="#000" opacity="1"/><text text-anchor="start" transform="translate(245.458904109589,7) rotate(90) translate(0,3)" font-family="sans-serif" font-size="10px" fill="#000" opacity="1"/><text text-anchor="start" transform="translate(249.15753424657532,7) rotate(90) translate(0,3)" font-family="sans-serif" font-size="10px" fill="#000" opacity="1"/><text text-anchor="start" transform="translate(252.85616438356163,7) rotate(90) translate(0,3)" font-family="sans-serif" font-size="10px" fill="#000" opacity="1">2015</text><text text-anchor="start" transform="translate(256.55479452054794,7) rotate(90) translate(0,3)" font-family="sans-serif" font-size="10px" fill="#000" opacity="1"/><text text-anchor="start" transform="translate(260.25342465753425,7) rotate(90) translate(0,3)" font-family="sans-serif" font-size="10px" fill="#000" opacity="1"/><text text-anchor="start" transform="translate(263.9520547945205,7) rotate(90) translate(0,3)" font-family="sans-serif" font-size="10px" fill="#000" opacity="1"/><text text-anchor="start" transform="translate(267.6506849315068,7) rotate(90) translate(0,3)" font-family="sans-serif" font-size="10px" fill="#000" opacity="1"/></g><g class="mark-rule role-axis-domain" pointer-events="none"><line transform="translate(0,0)" x2="270" y2="0" stroke="#888" stroke-width="1" opacity="1"/></g><g class="mark-text role-axis-title" pointer-events="none"><text text-anchor="middle" transform="translate(135,42.24609375)" font-family="sans-serif" font-size="11px" font-weight="bold" fill="#000" opacity="1">Year</text></g></g><path class="foreground" aria-hidden="true" d="" pointer-events="none" display="none"/></g></g><g class="mark-group role-axis" role="graphics-symbol" aria-roledescription="axis" aria-label="Y-axis titled 'Count' for a linear scale with values from 0 to 8"><g transform="translate(0.5,0.5)"><path class="background" aria-hidden="true" d="M0,0h0v0h0Z" pointer-events="none"/><g><g class="mark-rule role-axis-tick" pointer-events="none"><line transform="translate(0,300)" x2="-5" y2="0" stroke="#888" stroke-width="1" opacity="1"/><line transform="translate(0,263)" x2="-5" y2="0" stroke="#888" stroke-width="1" opacity="1"/><line transform="translate(0,225)" x2="-5" y2="0" stroke="#888" stroke-width="1" opacity="1"/><line transform="translate(0,188)" x2="-5" y2="0" stroke="#888" stroke-width="1" opacity="1"/><line transform="translate(0,150)" x2="-5" y2="0" stroke="#888" stroke-width="1" opacity="1"/><line transform="translate(0,113)" x2="-5" y2="0" stroke="#888" stroke-width="1" opacity="1"/><line transform="translate(0,75)" x2="-5" y2="0" stroke="#888" stroke-width="1" opacity="1"/><line transform="translate(0,38)" x2="-5" y2="0" stroke="#888" stroke-width="1" opacity="1"/><line transform="translate(0,0)" x2="-5" y2="0" stroke="#888" stroke-width="1" opacity="1"/></g><g class="mark-text role-axis-label" pointer-events="none"><text text-anchor="end" transform="translate(-7,303)" font-family="sans-serif" font-size="10px" fill="#000" opacity="1">0</text><text text-anchor="end" transform="translate(-7,265.5)" font-family="sans-serif" font-size="10px" fill="#000" opacity="1">1</text><text text-anchor="end" transform="translate(-7,228)" font-family="sans-serif" font-size="10px" fill="#000" opacity="1">2</text><text text-anchor="end" transform="translate(-7,190.5)" font-family="sans-serif" font-size="10px" fill="#000" opacity="1">3</text><text text-anchor="end" transform="translate(-7,153)" font-family="sans-serif" font-size="10px" fill="#000" opacity="1">4</text><text text-anchor="end" transform="translate(-7,115.5)" font-family="sans-serif" font-size="10px" fill="#000" opacity="1">5</text><text text-anchor="end" transform="translate(-7,78)" font-family="sans-serif" font-size="10px" fill="#000" opacity="1">6</text><text text-anchor="end" transform="translate(-7,40.5)" font-family="sans-serif" font-size="10px" fill="#000" opacity="1">7</text><text text-anchor="end" transform="translate(-7,3)" font-family="sans-serif" font-size="10px" fill="#000" opacity="1">8</text></g><g class="mark-rule role-axis-domain" pointer-events="none"><line transform="translate(0,300)" x2="0" y2="-300" stroke="#888" stroke-width="1" opacity="1"/></g><g class="mark-text role-axis-title" pointer-events="none"><text text-anchor="middle" transform="translate(-16.5615234375,150) rotate(-90) translate(0,-2)" font-family="sans-serif" font-size="11px" font-weight="bold" fill="#000" opacity="1">Count</text></g></g><path class="foreground" aria-hidden="true" d="" pointer-events="none" display="none"/></g></g><g class="mark-rect role-mark marks" role="graphics-object" aria-roledescription="rect mark container"><path aria-label="styear: 1945; interv_count: 1; Era: 3" role="graphics-symbol" aria-roledescription="bar" d="M0.1849315068492956,262.5h3.328767123287671v37.5h-3.328767123287671Z" fill="#4c78a8"/><path aria-label="styear: 1946; interv_count: 2; Era: 4" role="graphics-symbol" aria-roledescription="bar" d="M3.883561643835597,225h3.328767123287671v75h-3.328767123287671Z" fill="#f58518"/><path aria-label="styear: 1947; interv_count: 1; Era: 4" role="graphics-symbol" aria-roledescription="bar" d="M7.582191780821899,262.5h3.328767123287671v37.5h-3.328767123287671Z" fill="#f58518"/><path aria-label="styear: 1948; interv_count: 3; Era: 4" role="graphics-symbol" aria-roledescription="bar" d="M11.2808219178082,187.5h3.328767123287671v112.5h-3.328767123287671Z" fill="#f58518"/><path aria-label="styear: 1949; interv_count: 1; Era: 4" role="graphics-symbol" aria-roledescription="bar" d="M14.979452054794502,262.5h3.328767123287671v37.5h-3.328767123287671Z" fill="#f58518"/><path aria-label="styear: 1950; interv_count: 1; Era: 4" role="graphics-symbol" aria-roledescription="bar" d="M18.678082191780803,262.5h3.328767123287671v37.5h-3.328767123287671Z" fill="#f58518"/><path aria-label="styear: 1951; interv_count: 1; Era: 4" role="graphics-symbol" aria-roledescription="bar" d="M22.376712328767105,262.5h3.328767123287671v37.5h-3.328767123287671Z" fill="#f58518"/><path aria-label="styear: 1953; interv_count: 1; Era: 4" role="graphics-symbol" aria-roledescription="bar" d="M26.075342465753405,262.5h3.328767123287671v37.5h-3.328767123287671Z" fill="#f58518"/><path aria-label="styear: 1953; interv_count: 2; Era: 4" role="graphics-symbol" aria-roledescription="bar" d="M26.075342465753405,187.5h3.328767123287671v75h-3.328767123287671Z" fill="#f58518"/><path aria-label="styear: 1954; interv_count: 3; Era: 4" role="graphics-symbol" aria-roledescription="bar" d="M29.773972602739708,187.5h3.328767123287671v112.5h-3.328767123287671Z" fill="#f58518"/><path aria-label="styear: 1955; interv_count: 2; Era: 4" role="graphics-symbol" aria-roledescription="bar" d="M33.47260273972601,225h3.328767123287671v75h-3.328767123287671Z" fill="#f58518"/><path aria-label="styear: 1956; interv_count: 2; Era: 4" role="graphics-symbol" aria-roledescription="bar" d="M37.17123287671231,225h3.328767123287671v75h-3.328767123287671Z" fill="#f58518"/><path aria-label="styear: 1957; interv_count: 1; Era: 4" role="graphics-symbol" aria-roledescription="bar" d="M40.86986301369861,262.5h3.328767123287671v37.5h-3.328767123287671Z" fill="#f58518"/><path aria-label="styear: 1958; interv_count: 6; Era: 4" role="graphics-symbol" aria-roledescription="bar" d="M44.568493150684915,75h3.328767123287671v225h-3.328767123287671Z" fill="#f58518"/><path aria-label="styear: 1959; interv_count: 1; Era: 4" role="graphics-symbol" aria-roledescription="bar" d="M48.26712328767122,262.5h3.328767123287671v37.5h-3.328767123287671Z" fill="#f58518"/><path aria-label="styear: 1960; interv_count: 3; Era: 4" role="graphics-symbol" aria-roledescription="bar" d="M51.965753424657514,187.5h3.328767123287671v112.5h-3.328767123287671Z" fill="#f58518"/><path aria-label="styear: 1961; interv_count: 3; Era: 4" role="graphics-symbol" aria-roledescription="bar" d="M55.66438356164382,187.5h3.328767123287671v112.5h-3.328767123287671Z" fill="#f58518"/><path aria-label="styear: 1962; interv_count: 4; Era: 4" role="graphics-symbol" aria-roledescription="bar" d="M59.36301369863012,150h3.328767123287671v150h-3.328767123287671Z" fill="#f58518"/><path aria-label="styear: 1963; interv_count: 1; Era: 4" role="graphics-symbol" aria-roledescription="bar" d="M63.06164383561642,262.5h3.328767123287671v37.5h-3.328767123287671Z" fill="#f58518"/><path aria-label="styear: 1964; interv_count: 3; Era: 4" role="graphics-symbol" aria-roledescription="bar" d="M66.76027397260272,187.5h3.328767123287671v112.5h-3.328767123287671Z" fill="#f58518"/><path aria-label="styear: 1965; interv_count: 3; Era: 4" role="graphics-symbol" aria-roledescription="bar" d="M70.45890410958903,187.5h3.328767123287671v112.5h-3.328767123287671Z" fill="#f58518"/><path aria-label="styear: 1966; interv_count: 1; Era: 4" role="graphics-symbol" aria-roledescription="bar" d="M74.15753424657532,262.5h3.328767123287671v37.5h-3.328767123287671Z" fill="#f58518"/><path aria-label="styear: 1967; interv_count: 3; Era: 4" role="graphics-symbol" aria-roledescription="bar" d="M77.85616438356163,187.5h3.328767123287671v112.5h-3.328767123287671Z" fill="#f58518"/><path aria-label="styear: 1968; interv_count: 2; Era: 4" role="graphics-symbol" aria-roledescription="bar" d="M81.55479452054793,225h3.328767123287671v75h-3.328767123287671Z" fill="#f58518"/><path aria-label="styear: 1969; interv_count: 2; Era: 4" role="graphics-symbol" aria-roledescription="bar" d="M85.25342465753423,225h3.328767123287671v75h-3.328767123287671Z" fill="#f58518"/><path aria-label="styear: 1970; interv_count: 3; Era: 4" role="graphics-symbol" aria-roledescription="bar" d="M88.95205479452054,187.5h3.328767123287671v112.5h-3.328767123287671Z" fill="#f58518"/><path aria-label="styear: 1971; interv_count: 1; Era: 4" role="graphics-symbol" aria-roledescription="bar" d="M92.65068493150683,262.5h3.328767123287671v37.5h-3.328767123287671Z" fill="#f58518"/><path aria-label="styear: 1972; interv_count: 1; Era: 4" role="graphics-symbol" aria-roledescription="bar" d="M96.34931506849314,262.5h3.328767123287671v37.5h-3.328767123287671Z" fill="#f58518"/><path aria-label="styear: 1973; interv_count: 1; Era: 4" role="graphics-symbol" aria-roledescription="bar" d="M100.04794520547944,262.5h3.328767123287671v37.5h-3.328767123287671Z" fill="#f58518"/><path aria-label="styear: 1975; interv_count: 2; Era: 4" role="graphics-symbol" aria-roledescription="bar" d="M103.74657534246573,225h3.328767123287671v75h-3.328767123287671Z" fill="#f58518"/><path aria-label="styear: 1976; interv_count: 3; Era: 4" role="graphics-symbol" aria-roledescription="bar" d="M107.44520547945204,187.5h3.328767123287671v112.5h-3.328767123287671Z" fill="#f58518"/><path aria-label="styear: 1977; interv_count: 1; Era: 4" role="graphics-symbol" aria-roledescription="bar" d="M111.14383561643834,262.5h3.328767123287671v37.5h-3.328767123287671Z" fill="#f58518"/><path aria-label="styear: 1978; interv_count: 2; Era: 4" role="graphics-symbol" aria-roledescription="bar" d="M114.84246575342465,225h3.328767123287671v75h-3.328767123287671Z" fill="#f58518"/><path aria-label="styear: 1979; interv_count: 3; Era: 4" role="graphics-symbol" aria-roledescription="bar" d="M118.54109589041094,187.5h3.328767123287671v112.5h-3.328767123287671Z" fill="#f58518"/><path aria-label="styear: 1980; interv_count: 2; Era: 4" role="graphics-symbol" aria-roledescription="bar" d="M122.23972602739724,225h3.328767123287671v75h-3.328767123287671Z" fill="#f58518"/><path aria-label="styear: 1981; interv_count: 3; Era: 4" role="graphics-symbol" aria-roledescription="bar" d="M125.93835616438355,187.5h3.328767123287671v112.5h-3.328767123287671Z" fill="#f58518"/><path aria-label="styear: 1982; interv_count: 5; Era: 4" role="graphics-symbol" aria-roledescription="bar" d="M129.63698630136986,112.5h3.328767123287671v187.5h-3.328767123287671Z" fill="#f58518"/><path aria-label="styear: 1983; interv_count: 8; Era: 4" role="graphics-symbol" aria-roledescription="bar" d="M133.33561643835614,0h3.328767123287671v300h-3.328767123287671Z" fill="#f58518"/><path aria-label="styear: 1984; interv_count: 3; Era: 4" role="graphics-symbol" aria-roledescription="bar" d="M137.03424657534245,187.5h3.328767123287671v112.5h-3.328767123287671Z" fill="#f58518"/><path aria-label="styear: 1985; interv_count: 3; Era: 4" role="graphics-symbol" aria-roledescription="bar" d="M140.73287671232876,187.5h3.328767123287671v112.5h-3.328767123287671Z" fill="#f58518"/><path aria-label="styear: 1986; interv_count: 5; Era: 4" role="graphics-symbol" aria-roledescription="bar" d="M144.43150684931504,112.5h3.328767123287671v187.5h-3.328767123287671Z" fill="#f58518"/><path aria-label="styear: 1987; interv_count: 2; Era: 4" role="graphics-symbol" aria-roledescription="bar" d="M148.13013698630135,225h3.328767123287671v75h-3.328767123287671Z" fill="#f58518"/><path aria-label="styear: 1988; interv_count: 1; Era: 4" role="graphics-symbol" aria-roledescription="bar" d="M151.82876712328766,262.5h3.328767123287671v37.5h-3.328767123287671Z" fill="#f58518"/><path aria-label="styear: 1989; interv_count: 5; Era: 4" role="graphics-symbol" aria-roledescription="bar" d="M155.52739726027397,112.5h3.328767123287671v187.5h-3.328767123287671Z" fill="#f58518"/><path aria-label="styear: 1990; interv_count: 2; Era: 5" role="graphics-symbol" aria-roledescription="bar" d="M159.22602739726025,225h3.328767123287671v75h-3.328767123287671Z" fill="#e45756"/><path aria-label="styear: 1991; interv_count: 6; Era: 5" role="graphics-symbol" aria-roledescription="bar" d="M162.92465753424656,75h3.328767123287671v225h-3.328767123287671Z" fill="#e45756"/><path aria-label="styear: 1992; interv_count: 5; Era: 5" role="graphics-symbol" aria-roledescription="bar" d="M166.62328767123287,112.5h3.328767123287671v187.5h-3.328767123287671Z" fill="#e45756"/><path aria-label="styear: 1993; interv_count: 5; Era: 5" role="graphics-symbol" aria-roledescription="bar" d="M170.32191780821915,112.5h3.328767123287671v187.5h-3.328767123287671Z" fill="#e45756"/><path aria-label="styear: 1994; interv_count: 3; Era: 5" role="graphics-symbol" aria-roledescription="bar" d="M174.02054794520546,187.5h3.328767123287671v112.5h-3.328767123287671Z" fill="#e45756"/><path aria-label="styear: 1995; interv_count: 1; Era: 5" role="graphics-symbol" aria-roledescription="bar" d="M177.71917808219177,262.5h3.328767123287671v37.5h-3.328767123287671Z" fill="#e45756"/><path aria-label="styear: 1996; interv_count: 2; Era: 5" role="graphics-symbol" aria-roledescription="bar" d="M181.41780821917806,225h3.328767123287671v75h-3.328767123287671Z" fill="#e45756"/><path aria-label="styear: 1997; interv_count: 5; Era: 5" role="graphics-symbol" aria-roledescription="bar" d="M185.11643835616437,112.5h3.328767123287671v187.5h-3.328767123287671Z" fill="#e45756"/><path aria-label="styear: 1998; interv_count: 6; Era: 5" role="graphics-symbol" aria-roledescription="bar" d="M188.81506849315068,75h3.328767123287671v225h-3.328767123287671Z" fill="#e45756"/><path aria-label="styear: 1999; interv_count: 5; Era: 5" role="graphics-symbol" aria-roledescription="bar" d="M192.513698630137,112.5h3.328767123287671v187.5h-3.328767123287671Z" fill="#e45756"/><path aria-label="styear: 2000; interv_count: 7; Era: 5" role="graphics-symbol" aria-roledescription="bar" d="M196.21232876712327,37.5h3.328767123287671v262.5h-3.328767123287671Z" fill="#e45756"/><path aria-label="styear: 2001; interv_count: 3; Era: 6" role="graphics-symbol" aria-roledescription="bar" d="M199.91095890410958,187.5h3.328767123287671v112.5h-3.328767123287671Z" fill="#72b7b2"/><path aria-label="styear: 2002; interv_count: 5; Era: 6" role="graphics-symbol" aria-roledescription="bar" d="M203.6095890410959,112.5h3.328767123287671v187.5h-3.328767123287671Z" fill="#72b7b2"/><path aria-label="styear: 2003; interv_count: 7; Era: 6" role="graphics-symbol" aria-roledescription="bar" d="M207.30821917808217,37.5h3.328767123287671v262.5h-3.328767123287671Z" fill="#72b7b2"/><path aria-label="styear: 2004; interv_count: 6; Era: 6" role="graphics-symbol" aria-roledescription="bar" d="M211.00684931506848,75h3.328767123287671v225h-3.328767123287671Z" fill="#72b7b2"/><path aria-label="styear: 2005; interv_count: 5; Era: 6" role="graphics-symbol" aria-roledescription="bar" d="M214.7054794520548,112.5h3.328767123287671v187.5h-3.328767123287671Z" fill="#72b7b2"/><path aria-label="styear: 2006; interv_count: 3; Era: 6" role="graphics-symbol" aria-roledescription="bar" d="M218.40410958904107,187.5h3.328767123287671v112.5h-3.328767123287671Z" fill="#72b7b2"/><path aria-label="styear: 2007; interv_count: 2; Era: 6" role="graphics-symbol" aria-roledescription="bar" d="M222.10273972602738,225h3.328767123287671v75h-3.328767123287671Z" fill="#72b7b2"/><path aria-label="styear: 2008; interv_count: 3; Era: 6" role="graphics-symbol" aria-roledescription="bar" d="M225.8013698630137,187.5h3.328767123287671v112.5h-3.328767123287671Z" fill="#72b7b2"/><path aria-label="styear: 2009; interv_count: 4; Era: 6" role="graphics-symbol" aria-roledescription="bar" d="M229.5,150h3.328767123287671v150h-3.328767123287671Z" fill="#72b7b2"/><path aria-label="styear: 2010; interv_count: 2; Era: 6" role="graphics-symbol" aria-roledescription="bar" d="M233.19863013698628,225h3.328767123287671v75h-3.328767123287671Z" fill="#72b7b2"/><path aria-label="styear: 2011; interv_count: 2; Era: 6" role="graphics-symbol" aria-roledescription="bar" d="M236.8972602739726,225h3.328767123287671v75h-3.328767123287671Z" fill="#72b7b2"/><path aria-label="styear: 2012; interv_count: 2; Era: 6" role="graphics-symbol" aria-roledescription="bar" d="M240.5958904109589,225h3.328767123287671v75h-3.328767123287671Z" fill="#72b7b2"/><path aria-label="styear: 2013; interv_count: 3; Era: 6" role="graphics-symbol" aria-roledescription="bar" d="M244.29452054794518,187.5h3.328767123287671v112.5h-3.328767123287671Z" fill="#72b7b2"/><path aria-label="styear: 2014; interv_count: 5; Era: 6" role="graphics-symbol" aria-roledescription="bar" d="M247.9931506849315,112.5h3.328767123287671v187.5h-3.328767123287671Z" fill="#72b7b2"/><path aria-label="styear: 2015; interv_count: 2; Era: 6" role="graphics-symbol" aria-roledescription="bar" d="M251.6917808219178,225h3.328767123287671v75h-3.328767123287671Z" fill="#72b7b2"/><path aria-label="styear: 2016; interv_count: 2; Era: 6" role="graphics-symbol" aria-roledescription="bar" d="M255.3904109589041,225h3.328767123287671v75h-3.328767123287671Z" fill="#72b7b2"/><path aria-label="styear: 2017; interv_count: 7; Era: 6" role="graphics-symbol" aria-roledescription="bar" d="M259.0890410958904,37.5h3.328767123287671v262.5h-3.328767123287671Z" fill="#72b7b2"/><path aria-label="styear: 2018; interv_count: 3; Era: 6" role="graphics-symbol" aria-roledescription="bar" d="M262.7876712328767,187.5h3.328767123287671v112.5h-3.328767123287671Z" fill="#72b7b2"/><path aria-label="styear: 2019; interv_count: 2; Era: 6" role="graphics-symbol" aria-roledescription="bar" d="M266.486301369863,225h3.328767123287671v75h-3.328767123287671Z" fill="#72b7b2"/></g><g class="mark-group role-legend" role="graphics-symbol" aria-roledescription="legend" aria-label="Symbol legend titled 'Era' for fill color with 4 values: 3, 4, 5, 6"><g transform="translate(288,0)"><path class="background" aria-hidden="true" d="M0,0h22v66h-22Z" pointer-events="none"/><g><g class="mark-group role-legend-entry"><g transform="translate(0,16)"><path class="background" aria-hidden="true" d="M0,0h0v0h0Z" pointer-events="none"/><g><g class="mark-group role-scope" role="graphics-object" aria-roledescription="group mark container"><g transform="translate(0,0)"><path class="background" aria-hidden="true" d="M0,0h21.5615234375v11h-21.5615234375Z" pointer-events="none" opacity="1"/><g><g class="mark-symbol role-legend-symbol" pointer-events="none"><path transform="translate(6,6)" d="M-5,-5h10v10h-10Z" fill="#4c78a8" stroke-width="1.5" opacity="1"/></g><g class="mark-text role-legend-label" pointer-events="none"><text text-anchor="start" transform="translate(16,9)" font-family="sans-serif" font-size="10px" fill="#000" opacity="1">3</text></g></g><path class="foreground" aria-hidden="true" d="" pointer-events="none" display="none"/></g><g transform="translate(0,13)"><path class="background" aria-hidden="true" d="M0,0h21.5615234375v11h-21.5615234375Z" pointer-events="none" opacity="1"/><g><g class="mark-symbol role-legend-symbol" pointer-events="none"><path transform="translate(6,6)" d="M-5,-5h10v10h-10Z" fill="#f58518" stroke-width="1.5" opacity="1"/></g><g class="mark-text role-legend-label" pointer-events="none"><text text-anchor="start" transform="translate(16,9)" font-family="sans-serif" font-size="10px" fill="#000" opacity="1">4</text></g></g><path class="foreground" aria-hidden="true" d="" pointer-events="none" display="none"/></g><g transform="translate(0,26)"><path class="background" aria-hidden="true" d="M0,0h21.5615234375v11h-21.5615234375Z" pointer-events="none" opacity="1"/><g><g class="mark-symbol role-legend-symbol" pointer-events="none"><path transform="translate(6,6)" d="M-5,-5h10v10h-10Z" fill="#e45756" stroke-width="1.5" opacity="1"/></g><g class="mark-text role-legend-label" pointer-events="none"><text text-anchor="start" transform="translate(16,9)" font-family="sans-serif" font-size="10px" fill="#000" opacity="1">5</text></g></g><path class="foreground" aria-hidden="true" d="" pointer-events="none" display="none"/></g><g transform="translate(0,39)"><path class="background" aria-hidden="true" d="M0,0h21.5615234375v11h-21.5615234375Z" pointer-events="none" opacity="1"/><g><g class="mark-symbol role-legend-symbol" pointer-events="none"><path transform="translate(6,6)" d="M-5,-5h10v10h-10Z" fill="#72b7b2" stroke-width="1.5" opacity="1"/></g><g class="mark-text role-legend-label" pointer-events="none"><text text-anchor="start" transform="translate(16,9)" font-family="sans-serif" font-size="10px" fill="#000" opacity="1">6</text></g></g><path class="foreground" aria-hidden="true" d="" pointer-events="none" display="none"/></g></g></g><path class="foreground" aria-hidden="true" d="" pointer-events="none" display="none"/></g></g><g class="mark-text role-legend-title" pointer-events="none"><text text-anchor="start" transform="translate(0,9)" font-family="sans-serif" font-size="11px" font-weight="bold" fill="#000" opacity="1">Era</text></g></g><path class="foreground" aria-hidden="true" d="" pointer-events="none" display="none"/></g></g><g class="mark-group role-title"><g transform="translate(135,-22)"><path class="background" aria-hidden="true" d="M0,0h0v0h0Z" pointer-events="none"/><g><g class="mark-text role-title-text" role="graphics-symbol" aria-roledescription="title" aria-label="Title text 'Yearly Intervention Count by Era'" pointer-events="none"><text text-anchor="middle" transform="translate(0,10)" font-family="sans-serif" font-size="13px" font-weight="bold" fill="#000" opacity="1">Yearly Intervention Count by Era</text></g></g><path class="foreground" aria-hidden="true" d="" pointer-events="none" display="none"/></g></g></g><path class="foreground" aria-hidden="true" d="" display="none"/></g></g></g></svg>